<svg width="526" height="358" viewBox="0 0 526 358" fill="none" xmlns="http://www.w3.org/2000/svg">
<path d="M294.256 22.947C284.788 21.1723 274.714 20.8693 269.991 21.4537C269.991 21.4537 259.614 9.03129 248.066 2.82009C236.822 -3.23961 230.908 1.67308 229.781 40.282C229.738 42.2298 229.088 44.1126 227.94 45.6708C224.192 50.735 215.266 63.8932 207.423 83.5656C206.838 85.0589 205.971 86.444 204.845 87.591C202.007 90.4477 195.68 95.9664 185.303 100.728C170.484 107.545 139.698 120.248 127.263 161.671C114.827 203.072 118.813 227.332 122.366 242.871C124.988 254.276 129.364 267.391 131.444 273.342C132.115 275.29 130.924 277.39 128.909 277.822C125.963 278.428 120.828 279.099 111.859 279.402C93.5085 279.987 35.1648 277.628 13.8465 290.331C-7.47185 303.057 -7.77516 310.761 42.2709 310.761C92.317 310.761 240.96 307.796 255.172 307.493C269.385 307.212 286.63 306.325 290.573 299.81C294.516 293.296 291.613 285.613 286.11 278.796C280.607 272.001 281.235 257.501 281.82 235.318C282.427 213.135 283.597 209.001 283.597 209.001C283.597 209.001 291.31 218.156 310.266 224.67C329.202 231.184 337.434 233.11 346.23 241.984C353.661 249.45 366.509 256.029 375.11 249.515C383.689 243.022 383.537 231.336 369.173 218.156C352.21 202.595 324.024 180.304 315.293 172.319C307.06 164.809 306.713 161.671 306.41 159.009C306.107 156.347 306.107 139.488 306.41 134.164C306.713 128.84 308.923 127.217 318.261 121.439C327.598 115.66 338.388 104.277 339.276 86.5306C340.164 68.7843 332.17 52.8126 329.808 46.0171C327.425 39.1999 326.775 28.6604 325.757 19.8305C324.739 11.0223 322.637 -0.0799078 312.455 6.088C302.272 12.2559 294.256 22.947 294.256 22.947Z" fill="#0A0A0A"/>
<path d="M268.951 45.8656C256.754 44.8268 251.403 55.0633 250.731 63.8282C250.125 71.8141 254.523 81.2499 266.07 81.6827C276.946 82.1156 282.492 73.5887 282.947 63.3954C283.38 53.1805 276.729 46.5365 268.951 45.8656Z" fill="#FFD24A"/>
<path d="M316.094 47.4888C308.793 47.2724 303.55 56.0806 303.247 64.4559C302.965 72.0738 306.41 81.0336 314.989 81.2283C322.507 81.4231 326.45 73.4373 326.559 63.6768C326.689 53.938 320.579 47.6403 316.094 47.4888Z" fill="#FFD24A"/>
<path d="M268.93 63.6768C268.41 70.3425 264.358 75.4716 259.852 75.1253C255.346 74.7791 252.096 69.1089 252.616 62.4216C253.114 55.7559 257.187 50.6268 261.694 50.9731C266.2 51.3194 269.428 57.0111 268.93 63.6768Z" fill="#0A0A0A"/>
<path d="M317.048 64.4992C316.593 70.5589 313.473 75.2551 310.071 74.9954C306.692 74.7357 304.33 69.6283 304.785 63.5469C305.24 57.4872 308.382 52.791 311.761 53.0507C315.141 53.3104 317.524 58.4178 317.048 64.4992Z" fill="#0A0A0A"/>
<path d="M524.641 245.663C526.483 234.452 522.28 227.765 517.189 226.099C516.856 225.998 516.524 225.918 516.192 225.86C516.95 221.922 517.124 218.372 517.297 215.191C517.6 208.807 517.925 202.206 522.323 192.143C524.598 186.97 524.598 183.053 522.345 180.456C519.983 177.751 515.78 177.21 509.822 178.854C505.208 180.153 499.467 183.421 494.115 187.771C493.249 181.884 491.342 176.301 488.461 171.15C482.395 160.307 476.87 155.59 471.605 156.715C467.706 157.559 465.648 161.498 465.366 164.787C465.301 165.415 465.258 166.086 465.214 166.822C464.759 173.336 464.044 184.005 454.49 197.899C452.714 192.316 448.944 184.373 441.708 183.269C438.61 182.772 435.772 183.962 434.472 186.256C433.562 187.901 433.475 189.589 433.388 191.385C433.258 193.896 433.128 196.731 430.854 200.951C430.225 202.119 428.752 203.504 427.019 205.128C422.556 209.326 416.425 215.061 414.453 226.25C413.522 231.444 414.367 236.963 416.88 242.373C415.493 242.373 414.172 242.395 412.958 242.46C408.387 242.676 404.682 245.23 403.317 249.125C399.461 260.098 398.508 268.928 398.898 273.537C399.115 276.134 400.458 278.58 402.624 280.376C398.508 297.235 395.778 313.856 395.063 326.105C394.825 330.39 396.861 334.524 400.371 336.904C408.929 342.683 419.22 347.595 430.962 351.491C442.704 355.278 453.905 357.399 464.218 357.767C464.362 357.782 464.514 357.789 464.673 357.789C468.746 357.789 472.645 355.668 474.899 352.205C481.593 341.882 489.241 326.819 495.935 310.718C498.903 310.458 501.395 309.181 503.063 307.039C506.356 302.84 510.234 294.919 513.419 285.851C514.87 281.761 513.375 277.303 509.541 274.251C508.963 273.79 508.349 273.321 507.699 272.845C518.033 265.66 523.276 253.908 524.641 245.663Z" fill="#0A0A0A"/>
<path d="M502.478 283.449C483.413 275.615 442.639 262.24 413.565 254.233C406.069 276.481 399.526 306 398.356 326.3C398.183 329.416 399.634 332.425 402.234 334.178C410.749 339.934 420.931 344.695 431.959 348.353C443.029 351.924 454.057 354.11 464.348 354.478C467.467 354.607 470.414 353.049 472.125 350.431C483.196 333.398 495.372 305.784 502.478 283.449Z" fill="#E89336"/>
<path d="M502.478 283.449C483.413 275.615 442.639 262.24 413.565 254.233C406.069 276.481 399.526 306 398.356 326.3C398.183 329.416 399.634 332.425 402.234 334.178C410.749 339.934 420.931 344.695 431.959 348.353C443.029 351.924 454.057 354.11 464.348 354.478C467.467 354.607 470.414 353.049 472.125 350.431C483.196 333.398 495.372 305.784 502.478 283.449Z" fill="#7C4F94"/>
<path fill-rule="evenodd" clip-rule="evenodd" d="M431.439 349.954C419.848 346.102 409.709 341.276 401.281 335.563C398.226 333.507 396.471 329.914 396.666 326.192C397.793 306.649 403.924 277.519 411.962 253.713C412.243 252.848 413.153 252.372 414.02 252.61C443.289 260.66 484.084 274.057 503.128 281.891C503.93 282.216 504.363 283.125 504.081 283.947C496.477 307.861 484.193 334.957 473.534 351.34C471.519 354.456 467.966 356.317 464.283 356.166C454.1 355.798 443.073 353.698 431.439 349.954ZM414.67 256.289C406.957 279.554 401.129 307.515 400.046 326.387C399.894 328.919 401.108 331.364 403.166 332.771C411.355 338.311 421.213 343.007 432.5 346.751C443.809 350.387 454.533 352.422 464.413 352.79C466.904 352.898 469.331 351.621 470.717 349.5C480.986 333.68 492.837 307.71 500.398 284.423C481.268 276.719 442.964 264.145 414.67 256.289Z" fill="#0A0A0A"/>
<path d="M507.483 276.827C487.096 260.595 440.819 244.386 413.11 245.749C410.164 245.879 407.434 247.372 406.437 250.229C402.971 260.076 401.779 268.516 402.169 273.256C402.364 275.463 403.729 277.303 405.614 278.515C427.951 292.798 467.814 306.108 494.18 307.493C496.585 307.623 498.968 306.931 500.463 305.026C503.453 301.195 507.179 293.621 510.321 284.748C511.382 281.74 509.931 278.775 507.483 276.827Z" fill="#7C4F94"/>
<path d="M509.901 283.382C508.161 288.733 483.95 285.622 455.824 276.421C427.72 267.22 406.359 255.408 408.099 250.057C409.861 244.706 433.484 246.294 461.589 255.495C489.715 264.718 511.663 278.031 509.901 283.382Z" fill="#190026"/>
<path fill-rule="evenodd" clip-rule="evenodd" d="M448.251 299.572C432.045 294.27 416.251 287.301 404.704 279.922C402.256 278.363 400.718 275.983 400.501 273.386C400.111 268.949 401.064 260.401 404.834 249.666C405.982 246.398 409.124 244.256 413.023 244.061C426.174 243.412 444.589 246.701 463.589 253.086C482.048 259.297 498.448 267.477 508.523 275.507C511.837 278.125 513.115 281.891 511.902 285.31C508.761 294.227 504.991 301.975 501.806 306.065C500.095 308.229 497.365 309.354 494.094 309.181C480.986 308.489 464.413 304.853 448.251 299.572ZM461.185 255.856C443.918 250.207 426.066 246.788 413.197 247.416C410.662 247.545 408.712 248.801 408.019 250.77C404.422 261.007 403.512 269.014 403.859 273.104C404.032 275.204 405.614 276.502 406.524 277.086C429.164 291.565 468.529 304.442 494.267 305.805C495.502 305.87 497.777 305.719 499.142 303.987C502.066 300.222 505.749 292.647 508.718 284.207C509.801 281.133 507.244 278.796 506.421 278.147C495.805 269.685 478.777 261.613 461.185 255.856Z" fill="#0A0A0A"/>
<path d="M501.156 279.251C500.16 282.237 480.64 278.537 457.523 270.984C434.428 263.431 416.468 254.882 417.465 251.874C418.44 248.887 437.375 251.657 460.491 259.21C483.608 266.785 502.131 276.264 501.156 279.251Z" fill="#0A0A0A"/>
<path d="M465.951 268.581C468.962 269.295 470.371 268.43 473.187 267.239C485.709 262.002 506.919 244.754 511.621 230.405C516.127 216.619 513.246 204.695 519.312 190.822C523.233 181.884 520.677 178.681 510.711 182.036C500.788 185.369 487.053 195.237 479.73 211.079C473.1 225.406 452.194 240.339 454.837 258.258C455.79 262.543 460.166 267.175 465.951 268.581Z" fill="#A8D800"/>
<path d="M474.119 270.551C473.707 270.421 473.339 270.118 473.122 269.685C472.732 268.841 473.079 267.824 473.924 267.434C490.042 259.6 505.554 243.455 510.017 229.864C511.859 224.259 512.076 219.736 512.314 214.953C512.639 208.114 512.986 201.037 517.773 190.151C519.138 187.035 519.42 184.698 518.575 183.724C517.643 182.642 514.87 182.62 511.166 183.659C503.106 185.91 488.504 196.125 481.268 211.772C478.863 216.944 474.834 222.03 470.544 227.397C462.853 237.049 454.88 247.048 456.505 257.998C456.635 258.929 456.007 259.795 455.075 259.925C454.165 260.054 453.299 259.427 453.169 258.496C451.327 246.095 460.145 235.037 467.901 225.298C472.06 220.082 475.982 215.169 478.192 210.365C485.883 193.722 501.568 182.837 510.256 180.413C515.542 178.941 519.203 179.309 521.132 181.516C522.951 183.594 522.843 186.948 520.85 191.493C516.344 201.838 515.997 208.59 515.672 215.104C515.455 219.909 515.195 224.887 513.224 230.925C508.523 245.273 492.252 262.284 475.397 270.464C474.985 270.659 474.53 270.681 474.119 270.551Z" fill="#0A0A0A"/>
<path d="M436.075 257.955C424.657 251.895 415.558 238.845 417.681 226.813C420.281 212.075 430.962 207.725 433.757 202.509C437.938 194.761 435.902 190.433 437.353 187.879C439.065 184.828 448.684 185.39 452.345 202.704C454.663 213.589 451.219 219.757 447.709 232.375C444.178 244.992 446.864 256.613 449.182 260.011C451.522 263.409 440.04 260.054 436.075 257.955Z" fill="#A8D800"/>
<path fill-rule="evenodd" clip-rule="evenodd" d="M441.188 261.742C438.046 260.704 435.338 259.47 435.295 259.448C424.181 253.54 413.652 239.992 416.035 226.531C417.898 215.862 423.813 210.343 428.124 206.296C429.944 204.586 431.525 203.115 432.284 201.708C434.71 197.163 434.862 194.004 434.992 191.472C435.078 189.783 435.143 188.355 435.88 187.057C436.833 185.347 439.043 184.481 441.47 184.849C449.919 186.148 453.212 198.57 454.013 202.357C455.92 211.382 454.057 217.377 451.479 225.666C450.785 227.895 450.071 230.21 449.334 232.829C445.954 244.948 448.511 256.051 450.59 259.059C451.76 260.747 450.915 261.916 450.634 262.24C449.182 263.863 444.871 262.954 441.188 261.742ZM436.877 256.462C439.585 257.912 444.546 259.362 447.081 259.708C445.911 257.349 444.979 253.735 444.568 249.839C444.134 245.706 444.026 239.235 446.084 231.92C446.821 229.258 447.579 226.813 448.251 224.67C450.764 216.576 452.432 211.231 450.699 203.05C448.532 192.857 444.243 188.68 440.95 188.182C439.715 187.987 438.978 188.398 438.826 188.701C438.48 189.307 438.415 190.325 438.371 191.623C438.241 194.35 438.046 198.094 435.252 203.31C434.233 205.192 432.479 206.837 430.442 208.763C426.239 212.68 421.039 217.572 419.35 227.116C417.79 235.989 423.379 249.298 436.877 256.462Z" fill="#0A0A0A"/>
<path d="M451.609 265.205C445.478 263.647 440.105 260.552 438.74 254.298C435.1 237.439 439.953 221.51 452.995 205.409C468.334 186.472 468.031 172.535 468.637 165.069C469.027 160.481 474.66 153.209 485.601 172.751C496.412 192.121 490.996 215.689 478.495 233.392C470.717 244.429 460.318 252.869 458.346 263.712C457.978 265.811 456.527 266.114 454.49 265.789C453.522 265.645 452.562 265.45 451.609 265.205Z" fill="#A8D800"/>
<path d="M399.223 195.822C401.779 198.137 403.252 201.059 405.029 203.569C406.481 205.625 410.229 204.63 409.817 201.622C409.275 197.726 406.632 194.566 403.491 192.381C400.479 190.26 395.973 188.853 393.525 189.805C393.092 189.978 392.572 190.866 393.027 191.082C396.125 192.684 397.36 194.134 399.223 195.822Z" fill="#0A0A0A"/>
<path d="M487.074 171.929C481.463 161.931 476.372 157.342 471.952 158.295C468.854 158.966 467.186 162.212 466.969 164.917C466.911 165.552 466.861 166.223 466.817 166.93C466.298 174.569 465.409 187.381 451.674 204.348C435.988 223.739 431.655 242.654 438.436 262.219C438.61 262.738 439.021 263.128 439.498 263.279C439.845 263.387 440.213 263.387 440.581 263.257C441.469 262.954 441.924 262.002 441.621 261.115C435.252 242.763 439.411 224.865 454.295 206.469C468.702 188.658 469.634 175.197 470.176 167.168C470.233 166.475 470.284 165.819 470.327 165.198C470.457 163.64 471.367 161.866 472.667 161.584C473.664 161.368 477.412 161.606 484.106 173.574C495.372 193.701 487.876 217.182 477.108 232.439C475.028 235.383 472.797 238.196 470.652 240.923C463.893 249.472 457.502 257.544 457.393 267.564C457.372 268.495 458.13 269.274 459.061 269.274C459.993 269.295 460.751 268.538 460.773 267.607C460.881 258.734 466.622 251.441 473.295 243.022C475.483 240.252 477.737 237.395 479.881 234.366C491.234 218.286 499.077 193.419 487.074 171.929Z" fill="#0A0A0A"/>
<path d="M396.363 209.607C396.645 203.677 390.492 198.116 386.029 194.977C380.981 191.385 374.373 189.264 368.654 190.238C367.96 190.346 367.679 191.45 368.35 191.731C374.503 194.328 377.211 196.254 381.696 199.998C385.704 203.331 389.235 209.175 392.615 211.425C394.088 212.399 396.276 211.512 396.363 209.607Z" fill="#0A0A0A"/>
<path d="M471.779 271.546C471.735 263.625 478.127 253.367 490.714 248.974C503.323 244.602 509.389 236.551 512.054 230.946C514.264 226.228 523.861 230.145 521.392 245.143C518.9 260.119 503.561 277.281 483.37 275.139C472.169 273.948 471.779 271.546 471.779 271.546Z" fill="#A8D800"/>
<path fill-rule="evenodd" clip-rule="evenodd" d="M475.288 275.16C471.844 274.035 469.786 270.378 470.674 266.893C472.407 260.141 478.43 251.484 490.172 247.394C502.911 242.936 508.393 234.733 510.516 230.21C511.621 227.873 514.112 226.834 516.712 227.635C516.741 227.649 516.77 227.664 516.799 227.678C521.153 229.085 524.75 235.101 523.06 245.403C520.525 260.639 506.486 280.441 483.11 276.805C480.076 276.329 477.52 275.81 475.527 275.225C475.455 275.211 475.375 275.189 475.288 275.16ZM515.737 230.881C515.723 230.867 515.708 230.86 515.694 230.86C515.13 230.686 514.09 230.557 513.57 231.66C511.231 236.638 505.208 245.727 491.277 250.575C480.791 254.233 475.462 261.829 473.945 267.716C473.49 269.555 474.617 271.46 476.458 272.001C478.322 272.52 480.726 273.018 483.629 273.472C496.325 275.442 515.91 267.867 519.723 244.862C521.175 236.01 518.163 231.66 515.737 230.881Z" fill="#0A0A0A"/>
<path d="M21.8408 309.571C19.4794 309.571 17.5078 308.142 17.3995 306.325C17.2912 304.463 19.1761 302.862 21.6242 302.775C52.7784 301.672 240.115 301.888 324.219 302.169C345.104 302.256 370.062 303.554 370.062 305.437C370.062 308.986 353.531 309.528 332.603 309.441C248.586 309.16 52.9734 308.467 22.0358 309.571C21.9781 309.571 21.9131 309.571 21.8408 309.571Z" fill="#0A0A0A"/>
<path d="M421.972 315.202L422.479 313.533L429.598 308.273L432.2 309.065L425.189 314.357L424.087 313.637L432.521 316.203L431.907 318.223L421.972 315.202ZM427.058 319.207L427.743 316.957L428.434 314.96L429.044 312.954L431.386 313.667L429.477 319.943L427.058 319.207ZM436.5 322.28C435.623 322.013 434.902 321.559 434.338 320.92C433.778 320.27 433.424 319.471 433.278 318.523C433.131 317.576 433.236 316.515 433.593 315.342C433.95 314.168 434.453 313.228 435.103 312.523C435.752 311.817 436.489 311.356 437.313 311.138C438.141 310.91 438.993 310.93 439.871 311.197C440.759 311.467 441.478 311.925 442.028 312.572C442.592 313.212 442.947 314.005 443.093 314.953C443.24 315.901 443.135 316.961 442.778 318.135C442.421 319.309 441.918 320.248 441.268 320.954C440.619 321.659 439.881 322.126 439.053 322.354C438.239 322.574 437.388 322.55 436.5 322.28ZM437.138 320.182C437.556 320.31 437.954 320.303 438.332 320.161C438.72 320.022 439.078 319.724 439.407 319.267C439.746 318.813 440.038 318.182 440.283 317.376C440.528 316.57 440.636 315.884 440.608 315.318C440.59 314.755 440.458 314.308 440.213 313.977C439.978 313.649 439.652 313.421 439.233 313.294C438.825 313.17 438.427 313.177 438.039 313.316C437.662 313.457 437.304 313.755 436.965 314.21C436.636 314.667 436.349 315.299 436.104 316.105C435.859 316.911 435.745 317.596 435.763 318.159C435.792 318.725 435.924 319.172 436.158 319.5C436.403 319.831 436.73 320.058 437.138 320.182ZM442.915 321.572L443.423 319.903L450.541 314.643L453.144 315.434L446.132 320.727L445.03 320.007L453.464 322.573L452.85 324.593L442.915 321.572ZM448.002 325.577L448.686 323.327L449.377 321.33L449.987 319.324L452.329 320.037L450.42 326.313L448.002 325.577Z" fill="white"/>
</svg>
