<svg width="423" height="187" viewBox="0 0 423 187" fill="none" xmlns="http://www.w3.org/2000/svg">
<path d="M21.688 91.664C17.1653 91.664 13.3253 90.896 10.168 89.36C7.01067 87.7387 4.62133 85.648 3 83.088C1.464 80.528 0.696 77.84 0.696 75.024C0.696 71.184 1.976 67.8987 4.536 65.168C7.18133 62.352 10.808 60.944 15.416 60.944C16.0987 60.944 16.6107 61.072 16.952 61.328C17.3787 61.584 17.592 61.8827 17.592 62.224C17.592 62.5653 17.0373 63.3333 15.928 64.528C14.8187 65.7227 13.88 67.1307 13.112 68.752C12.344 70.288 11.96 72.2933 11.96 74.768C11.96 77.9253 12.8987 80.528 14.776 82.576C16.6533 84.624 19.2133 85.648 22.456 85.648C30.5627 85.648 34.616 80.3147 34.616 69.648V22.16C34.616 18.6613 34.104 16.1867 33.08 14.736C32.056 13.2853 30.0507 12.176 27.064 11.408L24.504 10.768L25.912 6.8H51.128L52.792 8.592L51.128 10.768C49.2507 13.2427 47.928 15.9307 47.16 18.832C46.4773 21.648 46.136 25.36 46.136 29.968V62.608C46.136 72.6773 43.96 80.0587 39.608 84.752C35.3413 89.36 29.368 91.664 21.688 91.664ZM89.247 91.664C83.871 91.664 79.1777 90.4267 75.167 87.952C71.1563 85.4773 68.0417 82.0213 65.823 77.584C63.6043 73.0613 62.495 67.856 62.495 61.968C62.495 55.824 63.7323 50.4053 66.207 45.712C68.6817 41.0187 72.1803 37.392 76.703 34.832C81.311 32.272 86.6017 30.992 92.575 30.992C98.8897 30.992 103.754 32.656 107.167 35.984C110.666 39.312 112.415 43.3227 112.415 48.016C112.415 51.2587 111.519 54.3733 109.727 57.36C108.02 60.3467 105.46 62.7787 102.047 64.656C98.719 66.5333 94.7937 67.472 90.271 67.472C87.711 67.472 84.9377 67.0453 81.951 66.192C78.9643 65.2533 77.471 63.888 77.471 62.096C77.471 61.4133 77.6417 60.816 77.983 60.304C78.3243 59.792 78.7083 59.536 79.135 59.536C79.391 59.536 80.159 59.792 81.439 60.304C82.8043 60.7307 84.5537 60.944 86.687 60.944C91.3803 60.944 95.007 59.664 97.567 57.104C100.127 54.544 101.407 51.472 101.407 47.888C101.407 44.816 100.383 42.1707 98.335 39.952C96.3723 37.7333 93.727 36.624 90.399 36.624C85.3643 36.624 81.439 38.8427 78.623 43.28C75.8923 47.632 74.527 53.8613 74.527 61.968C74.527 68.88 75.9777 74.2987 78.879 78.224C81.8657 82.064 86.1323 83.984 91.679 83.984C98.5057 83.984 104.138 81.7653 108.575 77.328C108.831 77.072 109.172 76.944 109.599 76.944C110.282 76.944 110.964 77.2853 111.647 77.968C112.415 78.6507 112.799 79.376 112.799 80.144C112.799 80.4 112.714 80.656 112.543 80.912C112.372 81.0827 112.287 81.2107 112.287 81.296C109.386 84.7093 105.93 87.312 101.919 89.104C97.9937 90.8107 93.7697 91.664 89.247 91.664ZM145.121 91.664C139.318 91.664 134.497 90.3413 130.657 87.696C126.817 84.9653 124.897 81.424 124.897 77.072C124.897 74.512 125.793 72.3787 127.585 70.672C129.462 68.88 131.809 67.984 134.625 67.984C135.222 67.984 135.777 68.112 136.289 68.368C136.801 68.624 137.057 68.9653 137.057 69.392C137.057 69.648 136.801 70.416 136.289 71.696C135.777 72.8907 135.521 74.3413 135.521 76.048C135.521 79.2053 136.63 81.6373 138.849 83.344C141.153 85.0507 143.713 85.904 146.529 85.904C149.772 85.904 152.417 85.0507 154.465 83.344C156.513 81.6373 157.537 79.4187 157.537 76.688C157.537 74.2133 156.428 72.1653 154.209 70.544C152.076 68.9227 148.961 67.2587 144.865 65.552C141.11 63.9307 137.953 62.3947 135.393 60.944C132.918 59.4933 130.785 57.5733 128.993 55.184C127.201 52.7947 126.305 49.8933 126.305 46.48C126.305 41.9573 128.31 38.2453 132.321 35.344C136.332 32.4427 141.366 30.992 147.425 30.992C152.972 30.992 157.537 32.0587 161.121 34.192C164.705 36.24 166.497 39.0987 166.497 42.768C166.497 45.7547 165.601 48.1867 163.809 50.064C162.017 51.9413 159.67 52.88 156.769 52.88C155.062 52.88 154.209 52.3253 154.209 51.216C154.209 50.8747 154.508 50.1067 155.105 48.912C155.788 47.7173 156.129 46.352 156.129 44.816C156.129 42.0853 155.148 40.0373 153.185 38.672C151.222 37.2213 149.004 36.496 146.529 36.496C143.372 36.496 140.854 37.264 138.977 38.8C137.185 40.336 136.289 42.3413 136.289 44.816C136.289 47.7173 137.484 50.1067 139.873 51.984C142.262 53.776 145.633 55.4827 149.985 57.104C153.74 58.7253 156.854 60.2187 159.329 61.584C161.804 62.9493 163.894 64.6987 165.601 66.832C167.308 68.88 168.161 71.312 168.161 74.128C168.161 79.4187 166.028 83.6853 161.761 86.928C157.58 90.0853 152.033 91.664 145.121 91.664ZM200.871 91.664C195.068 91.664 190.247 90.3413 186.407 87.696C182.567 84.9653 180.647 81.424 180.647 77.072C180.647 74.512 181.543 72.3787 183.335 70.672C185.212 68.88 187.559 67.984 190.375 67.984C190.972 67.984 191.527 68.112 192.039 68.368C192.551 68.624 192.807 68.9653 192.807 69.392C192.807 69.648 192.551 70.416 192.039 71.696C191.527 72.8907 191.271 74.3413 191.271 76.048C191.271 79.2053 192.38 81.6373 194.599 83.344C196.903 85.0507 199.463 85.904 202.279 85.904C205.522 85.904 208.167 85.0507 210.215 83.344C212.263 81.6373 213.287 79.4187 213.287 76.688C213.287 74.2133 212.178 72.1653 209.959 70.544C207.826 68.9227 204.711 67.2587 200.615 65.552C196.86 63.9307 193.703 62.3947 191.143 60.944C188.668 59.4933 186.535 57.5733 184.743 55.184C182.951 52.7947 182.055 49.8933 182.055 46.48C182.055 41.9573 184.06 38.2453 188.071 35.344C192.082 32.4427 197.116 30.992 203.175 30.992C208.722 30.992 213.287 32.0587 216.871 34.192C220.455 36.24 222.247 39.0987 222.247 42.768C222.247 45.7547 221.351 48.1867 219.559 50.064C217.767 51.9413 215.42 52.88 212.519 52.88C210.812 52.88 209.959 52.3253 209.959 51.216C209.959 50.8747 210.258 50.1067 210.855 48.912C211.538 47.7173 211.879 46.352 211.879 44.816C211.879 42.0853 210.898 40.0373 208.935 38.672C206.972 37.2213 204.754 36.496 202.279 36.496C199.122 36.496 196.604 37.264 194.727 38.8C192.935 40.336 192.039 42.3413 192.039 44.816C192.039 47.7173 193.234 50.1067 195.623 51.984C198.012 53.776 201.383 55.4827 205.735 57.104C209.49 58.7253 212.604 60.2187 215.079 61.584C217.554 62.9493 219.644 64.6987 221.351 66.832C223.058 68.88 223.911 71.312 223.911 74.128C223.911 79.4187 221.778 83.6853 217.511 86.928C213.33 90.0853 207.783 91.664 200.871 91.664ZM247.789 21.264C246.509 21.264 245.016 20.368 243.309 18.576C241.602 16.784 240.749 15.1627 240.749 13.712C240.749 12.2613 241.56 10.64 243.181 8.848C244.888 7.056 246.424 6.16 247.789 6.16C249.24 6.16 250.818 7.056 252.525 8.848C254.232 10.64 255.085 12.2613 255.085 13.712C255.085 15.1627 254.232 16.784 252.525 18.576C250.818 20.368 249.24 21.264 247.789 21.264ZM251.629 91.664C248.472 91.664 246.168 90.7253 244.717 88.848C243.352 86.8853 242.669 83.728 242.669 79.376V43.536C242.669 42.512 242.498 41.7867 242.157 41.36C241.816 40.9333 241.218 40.72 240.365 40.72H235.117L234.221 37.904C236.44 35.856 238.957 34.192 241.773 32.912C244.674 31.632 247.192 30.992 249.325 30.992C250.434 30.992 251.33 31.3333 252.013 32.016C252.781 32.6133 253.165 33.424 253.165 34.448V79.76C253.165 82.4053 254.317 83.728 256.621 83.728C258.413 83.728 260.376 82.9173 262.509 81.296L264.685 84.24C262.552 86.4587 260.29 88.2507 257.901 89.616C255.597 90.9813 253.506 91.664 251.629 91.664ZM299.53 91.664C294.154 91.664 289.333 90.3413 285.066 87.696C280.799 85.0507 277.429 81.424 274.954 76.816C272.565 72.208 271.37 67.0453 271.37 61.328C271.37 55.184 272.522 49.8507 274.826 45.328C277.13 40.72 280.415 37.1787 284.682 34.704C288.949 32.2293 293.898 30.992 299.53 30.992C305.503 30.992 310.367 32.4427 314.122 35.344C317.962 38.16 319.882 41.8293 319.882 46.352C319.882 49.68 318.815 52.4107 316.682 54.544C314.549 56.592 311.818 57.616 308.49 57.616C307.722 57.616 307.167 57.5307 306.826 57.36C306.485 57.1893 306.314 56.8907 306.314 56.464C306.314 56.208 306.57 55.6533 307.082 54.8C307.679 53.9467 308.191 52.9227 308.618 51.728C309.045 50.448 309.258 48.8267 309.258 46.864C309.258 43.792 308.234 41.4027 306.186 39.696C304.223 37.904 301.578 37.008 298.25 37.008C293.813 37.008 290.229 39.184 287.498 43.536C284.853 47.8027 283.53 53.4773 283.53 60.56C283.53 67.728 285.109 73.4027 288.266 77.584C291.509 81.7653 295.861 83.856 301.322 83.856C304.138 83.856 306.783 83.3867 309.258 82.448C311.733 81.5093 314.207 80.016 316.682 77.968C316.853 77.7973 317.194 77.712 317.706 77.712C318.389 77.712 319.029 78.096 319.626 78.864C320.309 79.5467 320.65 80.272 320.65 81.04C320.65 81.6373 320.565 81.936 320.394 81.936C317.663 85.0933 314.463 87.5253 310.794 89.232C307.21 90.8533 303.455 91.664 299.53 91.664ZM351.237 91.664C347.482 91.664 343.984 90.5973 340.741 88.464C337.584 86.2453 335.024 83.0453 333.061 78.864C331.184 74.5973 330.245 69.4347 330.245 63.376C330.245 53.392 332.933 45.4987 338.309 39.696C343.77 33.8933 351.109 30.992 360.325 30.992C363.397 30.992 367.578 31.4613 372.869 32.4C376.794 33.0827 380.336 33.552 383.493 33.808L385.029 35.216L383.365 37.392C382.768 38.416 382.341 39.2267 382.085 39.824C381.914 40.336 381.829 41.0613 381.829 42V79.76C381.829 82.1493 383.066 83.344 385.541 83.344C387.418 83.344 389.338 82.6613 391.301 81.296L393.477 84.24C391.429 86.544 389.253 88.3787 386.949 89.744C384.645 91.024 382.554 91.664 380.677 91.664C377.434 91.664 375.088 90.7253 373.637 88.848C372.186 86.8853 371.461 83.728 371.461 79.376C368.389 83.8987 365.189 87.0987 361.861 88.976C358.618 90.768 355.077 91.664 351.237 91.664ZM355.717 82.576C362.202 82.576 367.45 79.0773 371.461 72.08V40.72C368.133 38.5013 364.378 37.392 360.197 37.392C354.65 37.392 350.298 39.4827 347.141 43.664C344.069 47.76 342.533 53.6053 342.533 61.2C342.533 68.5387 343.77 73.9573 346.245 77.456C348.805 80.8693 351.962 82.576 355.717 82.576Z" fill="#7C4F94"/>
<path d="M314.951 162.48C313.587 161.662 312.122 161.083 310.555 160.742C308.987 160.47 306.738 160.333 303.808 160.333H280.091L279.171 157.471L305.034 119.748H291.234C288.848 119.748 287.178 120.021 286.224 120.566C285.338 121.043 284.725 122.066 284.384 123.633L283.26 128.438L280.397 127.518V113.308L281.42 111.979C282.783 112.933 284.248 113.581 285.815 113.921C287.383 114.194 289.632 114.33 292.562 114.33H315.666C316.825 115.421 317.404 116.75 317.404 118.317L314.951 119.851L290.62 155.017H305.034C307.42 155.017 309.123 154.745 310.146 154.2C311.168 153.654 311.816 152.598 312.088 151.03L313.11 146.226L316.075 147.146V161.458L314.951 162.48Z" fill="#7C4F94" fill-opacity="0.5"/>
<path d="M252.641 161.662C248.347 161.662 244.599 160.674 241.396 158.698C238.192 156.721 235.705 153.961 233.933 150.417C232.161 146.805 231.275 142.648 231.275 137.945C231.275 133.038 232.263 128.71 234.24 124.962C236.216 121.214 239.01 118.317 242.622 116.273C246.303 114.228 250.528 113.206 255.299 113.206C260.342 113.206 264.227 114.535 266.953 117.193C269.747 119.851 271.144 123.054 271.144 126.802C271.144 129.392 270.428 131.88 268.997 134.265C267.634 136.65 265.59 138.593 262.864 140.092C260.206 141.591 257.071 142.341 253.458 142.341C251.414 142.341 249.199 142 246.814 141.319C244.428 140.569 243.236 139.479 243.236 138.047C243.236 137.502 243.372 137.025 243.645 136.616C243.917 136.207 244.224 136.003 244.565 136.003C244.769 136.003 245.382 136.207 246.405 136.616C247.495 136.957 248.892 137.127 250.596 137.127C254.344 137.127 257.241 136.105 259.286 134.06C261.33 132.016 262.352 129.562 262.352 126.7C262.352 124.246 261.535 122.134 259.899 120.362C258.331 118.59 256.219 117.704 253.561 117.704C249.54 117.704 246.405 119.476 244.156 123.02C241.975 126.496 240.884 131.471 240.884 137.945C240.884 143.465 242.043 147.793 244.36 150.928C246.745 153.995 250.153 155.528 254.583 155.528C260.035 155.528 264.533 153.756 268.077 150.213C268.282 150.008 268.554 149.906 268.895 149.906C269.44 149.906 269.985 150.178 270.531 150.724C271.144 151.269 271.451 151.848 271.451 152.462C271.451 152.666 271.383 152.87 271.246 153.075C271.11 153.211 271.042 153.313 271.042 153.382C268.725 156.108 265.964 158.186 262.761 159.618C259.626 160.981 256.253 161.662 252.641 161.662Z" fill="#7C4F94" fill-opacity="0.5"/>
<path d="M215.065 161.662C212.544 161.662 210.704 160.912 209.545 159.413C208.455 157.846 207.909 155.324 207.909 151.848V129.767C207.909 123.429 205.626 120.26 201.06 120.26C198.538 120.26 196.255 121.282 194.211 123.326C192.234 125.303 190.667 128.131 189.508 131.811C188.35 135.423 187.736 139.615 187.668 144.386V145.51C187.668 148.645 187.907 151.167 188.384 153.075C188.929 154.983 190.019 156.926 191.655 158.902L190.53 160.333H179.388V129.767C179.388 126.632 178.774 124.281 177.547 122.713C176.389 121.077 174.651 120.26 172.334 120.26C169.676 120.26 167.325 121.316 165.28 123.429C163.304 125.541 161.77 128.506 160.68 132.323C159.589 136.139 159.044 140.535 159.044 145.51C159.044 148.372 159.249 150.69 159.657 152.462C160.134 154.234 160.918 155.903 162.009 157.471L163.133 158.902L162.009 160.333H145.754L144.834 157.471L146.572 156.96C148.208 156.687 149.264 156.074 149.741 155.12C150.286 154.097 150.559 152.393 150.559 150.008V124.042C150.559 123.292 150.423 122.781 150.15 122.509C149.878 122.168 149.401 121.997 148.719 121.997H144.732L143.812 119.544C145.584 117.908 147.629 116.579 149.946 115.557C152.263 114.535 154.307 114.024 156.079 114.024C156.965 114.024 157.681 114.296 158.226 114.841C158.771 115.387 159.044 116.068 159.044 116.886V127.007C160.612 122.918 162.929 119.612 165.996 117.09C169.131 114.501 172.402 113.206 175.81 113.206C179.626 113.206 182.488 114.33 184.397 116.579C186.305 118.76 187.395 122.236 187.668 127.007C189.236 122.986 191.587 119.68 194.722 117.09C197.857 114.501 201.094 113.206 204.434 113.206C208.591 113.206 211.59 114.535 213.43 117.193C215.338 119.851 216.292 124.042 216.292 129.767V152.155C216.292 154.268 217.178 155.324 218.95 155.324C220.517 155.324 222.051 154.677 223.55 153.382L225.39 155.733C223.755 157.573 222.017 159.038 220.177 160.129C218.337 161.151 216.633 161.662 215.065 161.662Z" fill="#7C4F94" fill-opacity="0.5"/>
<path d="M106.147 104.414L120.459 90C123.117 91.2949 124.446 93.2372 124.446 95.827C124.446 98.5531 122.742 100.768 119.335 102.472L108.805 107.481L106.147 104.414ZM113.405 161.662C106.454 161.662 100.933 159.481 96.8443 155.12C92.7552 150.69 90.7106 144.76 90.7106 137.332C90.7106 129.903 92.7552 124.042 96.8443 119.749C100.933 115.387 106.454 113.206 113.405 113.206C117.972 113.206 121.958 114.194 125.366 116.171C128.774 118.147 131.398 120.941 133.238 124.553C135.078 128.165 135.998 132.425 135.998 137.332C135.998 142.239 135.044 146.532 133.135 150.213C131.295 153.893 128.671 156.721 125.264 158.698C121.856 160.674 117.903 161.662 113.405 161.662ZM113.201 156.653C117.086 156.653 120.221 154.915 122.606 151.439C125.059 147.895 126.286 143.261 126.286 137.536C126.286 134.606 125.877 131.675 125.059 128.745C124.242 125.746 122.879 123.224 120.97 121.18C119.13 119.067 116.711 118.011 113.712 118.011C109.691 118.011 106.454 119.783 104 123.327C101.615 126.87 100.422 131.573 100.422 137.434C100.422 143.295 101.547 147.964 103.796 151.439C106.113 154.915 109.248 156.653 113.201 156.653Z" fill="#7C4F94" fill-opacity="0.5"/>
<path d="M57.3842 186.197C53.7721 186.197 50.6712 185.55 48.0814 184.255C45.5597 183.028 43.6515 181.392 42.3566 179.348C41.1298 177.303 40.5165 175.156 40.5165 172.907C40.5165 169.772 41.5387 167.114 43.5833 164.933C45.696 162.753 48.5925 161.662 52.2727 161.662C53.4313 161.662 54.0106 161.969 54.0106 162.582C54.0106 162.855 53.5676 163.434 52.6816 164.32C51.7957 165.274 51.0119 166.399 50.3304 167.694C49.717 168.989 49.4103 170.624 49.4103 172.601C49.4103 175.122 50.2622 177.201 51.966 178.837C53.6699 180.472 55.987 181.29 58.9176 181.29C63.0067 181.29 66.0395 179.723 68.0159 176.588C70.0605 173.521 71.0828 168.477 71.0828 161.458V152.666C66.1077 156.755 60.6555 158.8 54.7262 158.8C48.4562 158.8 43.1744 157.334 38.8808 154.404C34.5872 151.473 31.35 147.486 29.1691 142.443C27.0564 137.4 26 131.743 26 125.473C26 119.476 27.1245 113.99 29.3735 109.014C31.6907 104.039 35.1324 100.052 39.6986 97.0537C44.333 94.055 49.9556 92.5557 56.5663 92.5557C60.8599 92.5557 64.7105 93.169 68.1182 94.3958C71.5258 95.6225 74.1837 97.3604 76.092 99.6094C78.0002 101.79 78.9544 104.278 78.9544 107.072C78.9544 110.275 78.0002 112.899 76.092 114.944C74.2519 116.988 71.9006 118.011 69.0382 118.011C68.1522 118.011 67.607 117.942 67.4026 117.806C67.2663 117.67 67.1981 117.329 67.1981 116.784C67.1981 116.579 67.4366 116.068 67.9137 115.25C68.4589 114.364 68.9019 113.376 69.2427 112.286C69.5834 111.195 69.7538 109.9 69.7538 108.401C69.7538 105.198 68.5271 102.608 66.0736 100.632C63.6883 98.6553 60.5192 97.6671 56.5663 97.6671C51.7275 97.6671 47.7747 99.0642 44.7078 101.858C41.641 104.653 39.426 108.128 38.063 112.286C36.6999 116.443 36.0184 120.703 36.0184 125.064C36.0184 130.176 36.8021 134.844 38.3697 139.07C39.9372 143.295 42.1862 146.635 45.1167 149.088C48.1154 151.542 51.5571 152.768 55.4418 152.768C61.7118 152.768 66.9255 150.69 71.0828 146.532V141.83C71.0828 139.036 70.6398 137.093 69.7538 136.003C68.936 134.844 67.3344 133.924 64.9491 133.243L63.0067 132.629L64.029 129.358H83.5547L84.6792 130.994L83.5547 132.629C81.9872 134.674 80.8626 136.855 80.1811 139.172C79.5678 141.489 79.2611 144.488 79.2611 148.168V158.8C79.2611 177.065 71.9688 186.197 57.3842 186.197Z" fill="#7C4F94" fill-opacity="0.5"/>
</svg>
