<svg width="16" height="16" viewBox="0 0 47 47" fill="none" xmlns="http://www.w3.org/2000/svg">
<circle cx="23.5" cy="23.5" r="23.5" fill="black"/>
<path d="M23.4999 2C11.6261 2 2 11.626 2 23.5001C2 35.3747 11.6261 45 23.4999 45C35.375 45 45 35.3747 45 23.5001C45 11.6268 35.375 2.00103 23.4996 2.00103L23.4999 2ZM33.3596 33.0094C33.2678 33.1597 33.1473 33.2905 33.005 33.3942C32.8626 33.4979 32.7012 33.5725 32.53 33.6138C32.3588 33.655 32.1811 33.6621 32.0072 33.6346C31.8332 33.6071 31.6664 33.5456 31.5162 33.4535C26.4683 30.37 20.1135 29.6717 12.6297 31.3816C12.2831 31.4604 11.9195 31.3984 11.6186 31.2092C11.3178 31.02 11.1044 30.7191 11.0253 30.3726C10.9859 30.2011 10.9808 30.0234 11.0101 29.8499C11.0395 29.6763 11.1028 29.5102 11.1964 29.3612C11.29 29.2121 11.4122 29.083 11.5557 28.9812C11.6993 28.8794 11.8616 28.807 12.0333 28.768C20.2231 26.8968 27.2482 27.7025 32.9154 31.1659C33.547 31.5536 33.7472 32.3778 33.3596 33.0094ZM35.9911 27.1551C35.5059 27.9438 34.4738 28.1929 33.6856 27.7076C27.9065 24.1553 19.0971 23.1266 12.2615 25.2016C11.375 25.4693 10.4387 24.9697 10.1696 24.0847C10.0412 23.6593 10.0868 23.2002 10.2964 22.8083C10.5059 22.4164 10.8623 22.1236 11.2874 21.9941C19.0956 19.6249 28.8025 20.7725 35.4391 24.8508C36.2273 25.3361 36.4764 26.3679 35.9911 27.1551ZM36.217 21.059C29.2877 16.9432 17.8553 16.5647 11.2394 18.5727C10.1771 18.8949 9.05357 18.2952 8.73163 17.2328C8.57682 16.7224 8.63106 16.1714 8.88242 15.7009C9.13379 15.2305 9.56169 14.8791 10.072 14.7242C17.6666 12.4186 30.2916 12.8641 38.2694 17.6002C38.4968 17.7347 38.6954 17.9127 38.8538 18.1241C39.0123 18.3355 39.1275 18.5761 39.1928 18.832C39.2582 19.088 39.2724 19.3544 39.2346 19.6158C39.1969 19.8773 39.1079 20.1288 38.9729 20.3558C38.408 21.3114 37.1706 21.6264 36.2181 21.059H36.217Z" fill="#1ED760"/>
</svg>
